<?xml version="1.0" encoding="UTF-8" ?>
<!DOCTYPE svg PUBLIC "-//W3C//DTD SVG 1.1//EN" "http://www.w3.org/Graphics/SVG/1.1/DTD/svg11.dtd">
<svg width="640pt" height="1136pt" viewBox="0 0 640 1136" version="1.1" xmlns="http://www.w3.org/2000/svg">
<path fill="#6e625d" d=" M 0.00 0.00 L 236.99 0.00 C 236.85 9.97 237.18 19.93 236.81 29.90 C 231.90 29.99 227.00 30.05 222.10 30.08 C 222.01 34.66 221.91 39.24 221.88 43.83 C 216.96 43.99 212.04 44.08 207.11 44.13 C 206.65 54.37 207.38 64.62 206.83 74.86 C 201.60 74.99 196.38 75.00 191.15 75.11 C 190.60 84.69 191.40 94.28 190.81 103.85 C 185.92 103.98 181.03 104.05 176.15 104.11 C 175.97 109.36 175.96 114.62 175.86 119.88 C 170.63 120.02 165.39 120.05 160.15 120.16 C 160.07 125.05 159.98 129.94 159.87 134.82 C 155.30 134.85 150.72 135.00 146.15 135.16 C 145.77 145.38 146.24 155.60 145.82 165.82 C 140.91 165.95 136.01 166.05 131.11 166.15 C 131.06 170.71 130.94 175.26 130.87 179.82 C 120.63 180.42 110.37 179.65 100.14 180.24 C 100.07 185.11 100.00 189.99 99.88 194.86 C 94.98 195.05 90.08 195.16 85.18 195.21 C 85.13 200.36 85.11 205.51 84.82 210.66 C 82.67 210.92 80.52 211.20 78.37 211.47 C 78.15 213.86 77.93 216.26 77.71 218.65 C 75.53 218.92 73.36 219.19 71.18 219.45 C 70.84 226.93 71.30 234.41 70.84 241.88 C 65.62 242.02 60.39 242.01 55.17 242.11 C 55.09 247.02 54.99 251.93 54.88 256.84 C 49.98 257.07 45.08 257.16 40.18 257.14 C 40.12 261.72 39.98 266.31 39.87 270.89 C 34.98 271.02 30.08 271.12 25.19 271.17 C 24.72 281.40 25.45 291.65 24.85 301.87 C 19.60 302.06 14.36 302.03 9.11 302.17 C 9.07 307.06 9.02 311.94 8.89 316.83 C 5.93 316.98 2.96 317.13 0.00 317.28 L 0.00 0.00 Z" />
<path fill="#726864" d=" M 236.99 0.00 L 388.99 0.00 C 389.10 4.95 389.05 9.90 388.80 14.85 C 383.60 14.98 378.39 15.02 373.19 15.16 C 372.52 24.70 373.39 34.27 372.79 43.81 C 367.90 43.94 363.02 44.06 358.14 44.18 C 357.96 49.41 357.95 54.64 357.86 59.86 C 352.62 59.97 347.37 59.98 342.14 60.18 C 341.35 70.43 342.39 80.63 342.96 90.85 C 337.69 90.99 332.43 91.01 327.16 91.11 C 326.40 100.71 327.42 110.27 327.94 119.85 C 323.00 119.92 318.07 120.00 313.13 120.09 C 312.67 130.35 313.19 140.62 312.83 150.88 C 307.92 150.94 303.02 151.02 298.11 151.13 C 298.03 156.05 297.94 160.97 297.82 165.88 C 292.62 165.95 287.42 165.96 282.22 166.13 C 281.61 181.03 282.29 195.94 281.84 210.84 C 276.94 210.88 272.05 210.94 267.15 211.06 C 266.62 221.30 267.30 231.56 266.77 241.80 C 261.55 241.94 256.32 241.96 251.10 242.08 C 251.01 246.97 250.94 251.87 250.85 256.77 C 241.28 257.32 231.69 256.58 222.11 257.13 C 222.05 261.70 221.91 266.28 221.80 270.85 C 216.91 270.92 212.02 271.03 207.13 271.18 C 206.63 281.41 207.32 291.65 206.84 301.88 C 201.60 302.00 196.36 301.99 191.13 302.13 C 191.07 307.05 190.98 311.97 190.84 316.89 C 185.94 316.97 181.05 317.03 176.15 317.09 C 175.54 327.02 176.47 336.96 175.81 346.89 C 170.58 347.01 165.36 346.98 160.13 347.08 C 160.00 352.00 159.91 356.92 159.84 361.85 C 155.27 361.91 150.71 362.04 146.14 362.14 C 145.74 372.36 146.22 382.59 145.81 392.80 C 140.92 392.96 136.02 393.07 131.12 393.15 C 131.04 398.04 130.98 402.94 130.91 407.84 C 126.00 407.90 121.10 407.99 116.19 408.16 C 115.62 418.06 116.26 427.97 115.87 437.88 C 110.63 438.00 105.38 438.02 100.14 438.21 C 99.67 448.09 100.35 457.99 99.80 467.87 C 94.89 467.95 89.97 468.03 85.06 468.13 C 84.98 473.36 85.00 478.58 84.87 483.81 C 80.31 483.90 75.75 484.05 71.19 484.15 C 70.70 493.71 71.31 503.28 70.83 512.84 C 65.61 512.98 60.38 513.02 55.16 513.14 C 54.53 523.36 55.45 533.61 54.78 543.83 C 49.89 543.90 45.01 544.01 40.13 544.14 C 39.78 554.06 40.37 564.00 39.80 573.91 C 34.91 573.94 30.03 574.02 25.14 574.14 C 25.06 579.04 24.97 583.95 24.86 588.85 C 19.63 589.05 14.40 589.05 9.18 589.15 C 8.68 599.38 9.34 609.63 8.85 619.87 C 5.90 619.97 2.95 620.07 0.00 620.18 L 0.00 317.28 C 2.96 317.13 5.93 316.98 8.89 316.83 C 9.02 311.94 9.07 307.06 9.11 302.17 C 14.36 302.03 19.60 302.06 24.85 301.87 C 25.45 291.65 24.72 281.40 25.19 271.17 C 30.08 271.12 34.98 271.02 39.87 270.89 C 39.98 266.31 40.12 261.72 40.18 257.14 C 45.08 257.16 49.98 257.07 54.88 256.84 C 54.99 251.93 55.09 247.02 55.17 242.11 C 60.39 242.01 65.62 242.02 70.84 241.88 C 71.30 234.41 70.84 226.93 71.18 219.45 C 73.36 219.19 75.53 218.92 77.71 218.65 C 77.93 216.26 78.15 213.86 78.37 211.47 C 80.52 211.20 82.67 210.92 84.82 210.66 C 85.11 205.51 85.13 200.36 85.18 195.21 C 90.08 195.16 94.98 195.05 99.88 194.86 C 100.00 189.99 100.07 185.11 100.14 180.24 C 110.37 179.65 120.63 180.42 130.87 179.82 C 130.94 175.26 131.06 170.71 131.11 166.15 C 136.01 166.05 140.91 165.95 145.82 165.82 C 146.24 155.60 145.77 145.38 146.15 135.16 C 150.72 135.00 155.30 134.85 159.87 134.82 C 159.98 129.94 160.07 125.05 160.15 120.16 C 165.39 120.05 170.63 120.02 175.86 119.88 C 175.96 114.62 175.97 109.36 176.15 104.11 C 181.03 104.05 185.92 103.98 190.81 103.85 C 191.40 94.28 190.60 84.69 191.15 75.11 C 196.38 75.00 201.60 74.99 206.83 74.86 C 207.38 64.62 206.65 54.37 207.11 44.13 C 212.04 44.08 216.96 43.99 221.88 43.83 C 221.91 39.24 222.01 34.66 222.10 30.08 C 227.00 30.05 231.90 29.99 236.81 29.90 C 237.18 19.93 236.85 9.97 236.99 0.00 Z" />
<path fill="#756d69" d=" M 388.99 0.00 L 479.01 0.00 C 479.01 7.22 479.23 14.44 478.86 21.66 C 476.36 21.91 473.86 22.16 471.36 22.41 C 471.12 24.84 470.89 27.27 470.66 29.70 C 468.21 29.90 465.76 30.10 463.31 30.31 C 463.11 32.76 462.90 35.22 462.70 37.67 C 460.20 37.90 457.70 38.12 455.20 38.35 C 455.12 40.62 455.03 42.89 454.95 45.15 C 453.03 44.72 451.11 44.27 449.19 43.84 C 448.95 49.55 449.03 55.26 448.87 60.98 C 443.53 61.15 438.25 60.17 432.92 59.99 C 433.83 67.52 434.18 75.13 432.62 82.61 C 430.50 82.88 428.39 83.17 426.28 83.45 C 426.09 85.95 425.90 88.46 425.72 90.97 C 423.11 90.87 420.51 90.78 417.91 90.69 C 418.21 95.78 418.95 100.84 419.04 105.95 C 413.56 106.94 408.57 103.96 403.16 103.90 C 402.74 111.82 403.42 119.76 402.82 127.68 C 400.29 127.90 397.76 128.13 395.24 128.36 C 395.13 130.93 395.03 133.51 394.93 136.08 C 393.01 135.70 391.10 135.28 389.19 134.90 C 388.71 142.51 389.33 150.13 388.85 157.73 C 386.01 157.93 383.18 158.13 380.34 158.33 C 380.12 160.76 379.90 163.20 379.69 165.64 C 377.57 165.87 375.46 166.11 373.35 166.34 C 373.14 168.82 372.94 171.30 372.74 173.78 C 370.01 173.94 367.28 174.10 364.55 174.27 C 364.22 176.03 363.89 177.79 363.57 179.55 C 361.78 179.88 359.99 180.21 358.20 180.54 C 357.65 188.27 358.43 196.01 357.85 203.74 C 355.30 203.94 352.75 204.14 350.21 204.34 C 350.12 206.94 350.03 209.53 349.97 212.13 C 347.39 211.30 344.71 210.97 342.01 210.99 C 342.12 215.97 342.72 220.92 343.03 225.90 C 337.68 226.02 332.33 226.03 326.98 226.18 C 327.48 233.68 328.46 241.27 326.63 248.69 C 324.20 248.91 321.77 249.13 319.35 249.35 C 319.14 251.76 318.92 254.18 318.71 256.60 C 316.86 256.89 315.01 257.18 313.17 257.48 C 313.10 262.61 313.07 267.74 312.89 272.87 C 307.84 273.80 302.99 272.07 298.19 270.79 C 297.69 278.77 298.28 286.77 297.85 294.75 C 294.92 294.92 292.00 295.08 289.08 295.25 C 289.13 297.99 289.18 300.73 289.24 303.47 C 267.51 315.97 245.84 328.60 224.08 341.03 C 209.74 348.96 195.76 357.53 181.46 365.52 C 173.99 369.72 166.19 373.96 160.82 380.85 C 154.43 389.12 150.94 399.51 151.22 409.98 C 151.21 457.29 150.88 504.60 151.01 551.91 C 149.46 551.97 147.90 552.09 146.35 552.20 C 146.14 554.34 145.92 556.49 145.71 558.64 C 143.68 558.88 141.64 559.15 139.61 559.41 C 139.22 561.15 138.90 562.93 138.31 564.63 C 136.20 566.04 133.48 566.00 131.07 566.58 C 131.07 568.92 131.07 571.26 131.08 573.61 C 133.68 573.84 136.27 574.09 138.87 574.33 C 138.94 576.86 139.01 579.40 139.07 581.94 C 136.54 582.40 134.01 582.91 131.49 583.47 C 131.18 585.16 130.86 586.86 130.55 588.56 C 128.49 588.86 126.43 589.17 124.37 589.48 C 122.66 596.49 123.34 603.68 124.10 610.77 C 121.64 610.93 119.20 611.09 116.75 611.26 C 116.86 614.08 116.93 616.90 116.99 619.72 C 113.74 619.90 110.48 620.09 107.23 620.28 C 106.80 624.98 106.93 629.71 107.60 634.39 C 108.36 639.57 107.51 644.77 106.60 649.87 C 101.80 650.02 97.01 650.12 92.21 650.15 C 91.58 660.05 92.44 669.97 91.82 679.87 C 87.35 679.98 82.88 680.11 78.41 680.16 C 77.43 684.90 76.72 689.77 77.47 694.61 C 78.27 699.66 77.56 704.74 76.61 709.72 C 72.25 710.38 67.88 710.97 63.48 711.38 C 61.83 715.59 61.02 720.04 60.63 724.53 C 58.81 724.83 57.00 725.13 55.18 725.45 C 55.08 730.51 55.03 735.58 54.84 740.64 C 52.33 740.90 49.82 741.18 47.30 741.45 C 46.50 745.80 45.98 750.21 45.67 754.63 C 43.80 754.90 41.93 755.18 40.06 755.46 C 39.91 758.24 40.23 761.04 41.23 763.66 C 43.20 768.04 40.40 772.47 39.39 776.72 C 37.04 776.92 34.70 777.14 32.35 777.36 C 32.12 779.77 31.89 782.18 31.65 784.60 C 29.45 784.85 27.24 785.12 25.04 785.38 C 25.14 792.16 26.87 799.05 24.68 805.69 C 21.87 805.90 19.06 806.13 16.25 806.36 C 16.10 809.47 15.94 812.59 15.78 815.71 C 13.50 815.92 11.23 816.13 8.96 816.35 C 8.96 820.02 10.20 823.49 11.04 827.02 C 11.17 830.42 9.53 833.55 8.43 836.68 C 6.12 836.88 3.80 837.10 1.49 837.33 C 1.01 840.11 0.45 842.88 0.00 845.67 L 0.00 620.18 C 2.95 620.07 5.90 619.97 8.85 619.87 C 9.34 609.63 8.68 599.38 9.18 589.15 C 14.40 589.05 19.63 589.05 24.86 588.85 C 24.97 583.95 25.06 579.04 25.14 574.14 C 30.03 574.02 34.91 573.94 39.80 573.91 C 40.37 564.00 39.78 554.06 40.13 544.14 C 45.01 544.01 49.89 543.90 54.78 543.83 C 55.45 533.61 54.53 523.36 55.16 513.14 C 60.38 513.02 65.61 512.98 70.83 512.84 C 71.31 503.28 70.70 493.71 71.19 484.15 C 75.75 484.05 80.31 483.90 84.87 483.81 C 85.00 478.58 84.98 473.36 85.06 468.13 C 89.97 468.03 94.89 467.95 99.80 467.87 C 100.35 457.99 99.67 448.09 100.14 438.21 C 105.38 438.02 110.63 438.00 115.87 437.88 C 116.26 427.97 115.62 418.06 116.19 408.16 C 121.10 407.99 126.00 407.90 130.91 407.84 C 130.98 402.94 131.04 398.04 131.12 393.15 C 136.02 393.07 140.92 392.96 145.81 392.80 C 146.22 382.59 145.74 372.36 146.14 362.14 C 150.71 362.04 155.27 361.91 159.84 361.85 C 159.91 356.92 160.00 352.00 160.13 347.08 C 165.36 346.98 170.58 347.01 175.81 346.89 C 176.47 336.96 175.54 327.02 176.15 317.09 C 181.05 317.03 185.94 316.97 190.84 316.89 C 190.98 311.97 191.07 307.05 191.13 302.13 C 196.36 301.99 201.60 302.00 206.84 301.88 C 207.32 291.65 206.63 281.41 207.13 271.18 C 212.02 271.03 216.91 270.92 221.80 270.85 C 221.91 266.28 222.05 261.70 222.11 257.13 C 231.69 256.58 241.28 257.32 250.85 256.77 C 250.94 251.87 251.01 246.97 251.10 242.08 C 256.32 241.96 261.55 241.94 266.77 241.80 C 267.30 231.56 266.62 221.30 267.15 211.06 C 272.05 210.94 276.94 210.88 281.84 210.84 C 282.29 195.94 281.61 181.03 282.22 166.13 C 287.42 165.96 292.62 165.95 297.82 165.88 C 297.94 160.97 298.03 156.05 298.11 151.13 C 303.02 151.02 307.92 150.94 312.83 150.88 C 313.19 140.62 312.67 130.35 313.13 120.09 C 318.07 120.00 323.00 119.92 327.94 119.85 C 327.42 110.27 326.40 100.71 327.16 91.11 C 332.43 91.01 337.69 90.99 342.96 90.85 C 342.39 80.63 341.35 70.43 342.14 60.18 C 347.37 59.98 352.62 59.97 357.86 59.86 C 357.95 54.64 357.96 49.41 358.14 44.18 C 363.02 44.06 367.90 43.94 372.79 43.81 C 373.39 34.27 372.52 24.70 373.19 15.16 C 378.39 15.02 383.60 14.98 388.80 14.85 C 389.05 9.90 389.10 4.95 388.99 0.00 Z" />
<path fill="#79716e" d=" M 479.01 0.00 L 598.99 0.00 C 599.13 4.96 599.09 9.92 598.85 14.88 C 593.96 14.97 589.07 15.05 584.18 15.15 C 584.09 20.06 583.98 24.96 583.86 29.86 C 578.97 30.02 574.08 30.11 569.19 30.14 C 568.74 40.04 569.36 49.95 568.85 59.84 C 563.95 59.97 559.06 60.07 554.17 60.15 C 554.03 65.06 553.93 69.97 553.86 74.88 C 548.96 74.96 544.06 75.05 539.16 75.14 C 538.76 84.70 539.39 94.27 538.79 103.82 C 533.92 103.99 529.05 104.11 524.18 104.17 C 524.06 109.41 524.03 114.65 523.87 119.89 C 518.97 120.04 514.08 120.13 509.18 120.15 C 508.71 130.41 509.43 140.69 508.83 150.94 C 503.61 151.00 498.38 150.98 493.16 151.14 C 493.07 156.05 492.98 160.97 492.88 165.88 C 488.31 165.99 483.74 166.12 479.18 166.17 C 478.66 175.73 479.49 185.30 478.86 194.85 C 473.62 195.04 468.39 195.05 463.16 195.14 C 463.08 200.37 463.05 205.61 462.86 210.84 C 458.30 210.97 453.75 211.13 449.20 211.22 C 448.70 221.43 449.47 231.66 448.85 241.87 C 443.61 242.00 438.37 242.04 433.13 242.21 C 433.07 247.08 432.99 251.96 432.90 256.83 C 428.00 256.99 423.10 257.09 418.20 257.19 C 417.65 266.77 418.41 276.36 417.83 285.93 C 412.94 286.00 408.05 286.07 403.17 286.15 C 402.64 296.38 403.42 306.63 402.87 316.86 C 398.28 316.97 393.69 317.10 389.10 317.15 C 389.12 321.36 389.16 325.57 389.28 329.78 C 373.16 320.57 357.04 311.37 340.95 302.10 C 333.69 297.80 325.43 294.38 316.85 294.66 C 312.14 295.05 307.38 295.49 302.84 296.88 C 298.00 298.37 293.64 301.02 289.24 303.47 C 289.18 300.73 289.13 297.99 289.08 295.25 C 292.00 295.08 294.92 294.92 297.85 294.75 C 298.28 286.77 297.69 278.77 298.19 270.79 C 302.99 272.07 307.84 273.80 312.89 272.87 C 313.07 267.74 313.10 262.61 313.17 257.48 C 315.01 257.18 316.86 256.89 318.71 256.60 C 318.92 254.18 319.14 251.76 319.35 249.35 C 321.77 249.13 324.20 248.91 326.63 248.69 C 328.46 241.27 327.48 233.68 326.98 226.18 C 332.33 226.03 337.68 226.02 343.03 225.90 C 342.72 220.92 342.12 215.97 342.01 210.99 C 344.71 210.97 347.39 211.30 349.97 212.13 C 350.03 209.53 350.12 206.94 350.21 204.34 C 352.75 204.14 355.30 203.94 357.85 203.74 C 358.43 196.01 357.65 188.27 358.20 180.54 C 359.99 180.21 361.78 179.88 363.57 179.55 C 363.89 177.79 364.22 176.03 364.55 174.27 C 367.28 174.10 370.01 173.94 372.74 173.78 C 372.94 171.30 373.14 168.82 373.35 166.34 C 375.46 166.11 377.57 165.87 379.69 165.64 C 379.90 163.20 380.12 160.76 380.34 158.33 C 383.18 158.13 386.01 157.93 388.85 157.73 C 389.33 150.13 388.71 142.51 389.19 134.90 C 391.10 135.28 393.01 135.70 394.93 136.08 C 395.03 133.51 395.13 130.93 395.24 128.36 C 397.76 128.13 400.29 127.90 402.82 127.68 C 403.42 119.76 402.74 111.82 403.16 103.90 C 408.57 103.96 413.56 106.94 419.04 105.95 C 418.95 100.84 418.21 95.78 417.91 90.69 C 420.51 90.78 423.11 90.87 425.72 90.97 C 425.90 88.46 426.09 85.95 426.28 83.45 C 428.39 83.17 430.50 82.88 432.62 82.61 C 434.18 75.13 433.83 67.52 432.92 59.99 C 438.25 60.17 443.53 61.15 448.87 60.98 C 449.03 55.26 448.95 49.55 449.19 43.84 C 451.11 44.27 453.03 44.72 454.95 45.15 C 455.03 42.89 455.12 40.62 455.20 38.35 C 457.70 38.12 460.20 37.90 462.70 37.67 C 462.90 35.22 463.11 32.76 463.31 30.31 C 465.76 30.10 468.21 29.90 470.66 29.70 C 470.89 27.27 471.12 24.84 471.36 22.41 C 473.86 22.16 476.36 21.91 478.86 21.66 C 479.23 14.44 479.01 7.22 479.01 0.00 Z" />
<path fill="#7c7673" d=" M 598.99 0.00 L 640.00 0.00 L 640.00 210.91 C 636.71 210.92 633.42 211.00 630.15 211.13 C 630.02 216.03 629.95 220.92 629.87 225.82 C 624.64 225.99 619.41 226.01 614.19 226.16 C 613.48 236.38 614.42 246.63 613.82 256.86 C 608.92 256.96 604.01 257.03 599.11 257.13 C 599.04 262.11 598.82 267.09 598.93 272.07 C 598.90 275.50 600.50 278.62 600.99 281.97 C 600.71 283.91 599.04 285.77 597.01 285.85 C 592.73 286.18 588.43 285.93 584.15 286.14 C 584.00 291.40 583.97 296.66 583.80 301.92 C 578.92 301.96 574.04 302.03 569.16 302.15 C 568.56 312.38 569.29 322.63 568.82 332.86 C 563.92 332.93 559.02 333.00 554.13 333.11 C 554.00 337.67 553.89 342.24 553.89 346.81 C 548.96 346.95 544.03 347.03 539.11 347.08 C 538.70 356.99 539.18 366.91 538.86 376.82 C 533.94 376.96 529.02 377.04 524.10 377.12 C 523.53 387.36 524.39 397.61 523.80 407.85 C 518.93 407.99 514.06 408.08 509.19 408.13 C 508.45 418.03 509.46 427.94 508.83 437.84 C 503.62 438.00 498.41 438.02 493.21 438.12 C 492.80 448.03 493.14 457.95 492.89 467.86 C 489.35 468.04 485.81 468.06 482.27 467.91 C 481.93 448.61 482.12 429.30 482.14 410.00 C 482.08 407.76 481.44 405.60 480.92 403.44 C 479.36 389.91 471.64 377.13 459.79 370.21 C 436.34 356.65 412.74 343.33 389.28 329.78 C 389.16 325.57 389.12 321.36 389.10 317.15 C 393.69 317.10 398.28 316.97 402.87 316.86 C 403.42 306.63 402.64 296.38 403.17 286.15 C 408.05 286.07 412.94 286.00 417.83 285.93 C 418.41 276.36 417.65 266.77 418.20 257.19 C 423.10 257.09 428.00 256.99 432.90 256.83 C 432.99 251.96 433.07 247.08 433.13 242.21 C 438.37 242.04 443.61 242.00 448.85 241.87 C 449.47 231.66 448.70 221.43 449.20 211.22 C 453.75 211.13 458.30 210.97 462.86 210.84 C 463.05 205.61 463.08 200.37 463.16 195.14 C 468.39 195.05 473.62 195.04 478.86 194.85 C 479.49 185.30 478.66 175.73 479.18 166.17 C 483.74 166.12 488.31 165.99 492.88 165.88 C 492.98 160.97 493.07 156.05 493.16 151.14 C 498.38 150.98 503.61 151.00 508.83 150.94 C 509.43 140.69 508.71 130.41 509.18 120.15 C 514.08 120.13 518.97 120.04 523.87 119.89 C 524.03 114.65 524.06 109.41 524.18 104.17 C 529.05 104.11 533.92 103.99 538.79 103.82 C 539.39 94.27 538.76 84.70 539.16 75.14 C 544.06 75.05 548.96 74.96 553.86 74.88 C 553.93 69.97 554.03 65.06 554.17 60.15 C 559.06 60.07 563.95 59.97 568.85 59.84 C 569.36 49.95 568.74 40.04 569.19 30.14 C 574.08 30.11 578.97 30.02 583.86 29.86 C 583.98 24.96 584.09 20.06 584.18 15.15 C 589.07 15.05 593.96 14.97 598.85 14.88 C 599.09 9.92 599.13 4.96 598.99 0.00 Z" />
<path fill="#817c7a" d=" M 630.15 211.13 C 633.42 211.00 636.71 210.92 640.00 210.91 L 640.00 528.93 C 636.72 528.93 633.45 528.99 630.19 529.09 C 629.49 539.01 630.32 548.95 629.83 558.87 C 624.61 558.94 619.39 558.96 614.18 559.14 C 613.53 574.02 614.41 588.92 613.78 603.81 C 608.89 603.89 604.01 604.00 599.13 604.11 C 598.71 614.00 599.26 623.91 598.87 633.81 C 593.96 633.87 589.05 633.97 584.15 634.13 C 583.63 649.37 584.25 664.62 583.84 679.86 C 578.95 679.95 574.06 680.02 569.17 680.09 C 568.57 690.00 569.43 699.92 568.80 709.83 C 563.93 709.92 559.06 710.03 554.19 710.16 C 553.50 725.05 554.36 739.96 553.83 754.86 C 548.95 754.93 544.07 754.99 539.20 755.05 C 538.49 764.97 539.39 774.91 538.83 784.84 C 533.95 784.92 529.07 785.01 524.20 785.08 C 523.65 800.31 524.28 815.56 523.83 830.79 C 518.93 830.90 514.04 831.01 509.15 831.12 C 508.53 841.02 509.43 850.94 508.79 860.84 C 503.58 861.02 498.36 861.01 493.15 861.08 C 492.71 876.32 493.31 891.59 492.80 906.84 C 488.23 906.89 483.67 907.01 479.11 907.11 C 478.61 922.02 479.21 936.93 478.84 951.84 C 473.61 951.90 468.38 951.91 463.16 952.13 C 462.51 966.68 463.32 981.26 462.81 995.82 C 458.26 995.90 453.71 996.02 449.16 996.09 C 448.59 1016.69 449.32 1037.31 448.79 1057.92 C 443.59 1058.00 438.39 1058.00 433.19 1058.13 C 432.54 1083.34 433.38 1108.58 432.84 1133.80 C 427.48 1134.34 421.45 1132.59 416.76 1136.00 L 237.07 1136.00 C 236.71 1121.99 237.15 1107.97 236.95 1093.96 C 237.00 1086.70 236.75 1079.43 237.16 1072.18 C 241.69 1072.02 246.21 1071.87 250.74 1071.81 C 251.48 1051.93 250.44 1032.01 251.19 1012.12 C 256.40 1011.94 261.62 1011.93 266.84 1011.85 C 267.23 996.95 266.67 982.04 267.18 967.14 C 272.06 967.00 276.93 966.93 281.81 966.90 C 282.26 951.65 281.65 936.38 282.11 921.12 C 287.35 920.96 292.59 921.00 297.83 920.93 C 298.28 905.98 297.58 891.02 298.19 876.07 C 303.06 875.98 307.93 875.92 312.80 875.86 C 313.27 860.97 312.59 846.06 313.17 831.17 C 317.71 831.00 322.25 830.87 326.80 830.86 C 327.22 820.96 326.68 811.06 327.15 801.17 C 332.03 800.96 336.91 800.86 341.79 800.85 C 342.29 785.60 341.78 770.34 342.15 755.10 C 347.34 754.98 352.54 755.00 357.74 754.87 C 357.96 750.81 358.17 746.75 358.31 742.68 C 363.48 746.85 370.86 746.43 376.07 742.56 C 375.78 742.15 375.21 741.35 374.92 740.94 C 371.06 743.56 365.81 745.05 361.60 742.31 C 357.94 740.44 356.80 736.28 356.16 732.55 C 363.02 732.42 369.88 732.54 376.74 732.46 C 376.42 728.40 375.51 724.22 372.35 721.39 C 373.80 712.69 372.37 703.87 373.23 695.13 C 378.42 694.95 383.60 694.95 388.79 694.85 C 389.30 679.95 388.58 665.04 389.15 650.15 C 393.69 650.03 398.24 649.89 402.78 649.83 C 403.43 639.93 402.50 630.02 403.14 620.13 C 408.02 619.98 412.91 619.86 417.79 619.78 C 417.97 615.95 418.90 611.71 416.55 608.33 C 430.70 600.23 445.00 592.36 459.16 584.28 C 472.79 576.29 481.65 560.82 480.90 544.94 C 480.82 497.77 481.07 450.60 480.92 403.44 C 481.44 405.60 482.08 407.76 482.14 410.00 C 482.12 429.30 481.93 448.61 482.27 467.91 C 485.81 468.06 489.35 468.04 492.89 467.86 C 493.14 457.95 492.80 448.03 493.21 438.12 C 498.41 438.02 503.62 438.00 508.83 437.84 C 509.46 427.94 508.45 418.03 509.19 408.13 C 514.06 408.08 518.93 407.99 523.80 407.85 C 524.39 397.61 523.53 387.36 524.10 377.12 C 529.02 377.04 533.94 376.96 538.86 376.82 C 539.18 366.91 538.70 356.99 539.11 347.08 C 544.03 347.03 548.96 346.95 553.89 346.81 C 553.89 342.24 554.00 337.67 554.13 333.11 C 559.02 333.00 563.92 332.93 568.82 332.86 C 569.29 322.63 568.56 312.38 569.16 302.15 C 574.04 302.03 578.92 301.96 583.80 301.92 C 583.97 296.66 584.00 291.40 584.15 286.14 C 588.43 285.93 592.73 286.18 597.01 285.85 C 599.04 285.77 600.71 283.91 600.99 281.97 C 600.50 278.62 598.90 275.50 598.93 272.07 C 598.82 267.09 599.04 262.11 599.11 257.13 C 604.01 257.03 608.92 256.96 613.82 256.86 C 614.42 246.63 613.48 236.38 614.19 226.16 C 619.41 226.01 624.64 225.99 629.87 225.82 C 629.95 220.92 630.02 216.03 630.15 211.13 Z" />
<path fill="#8d8884" d=" M 302.84 296.88 C 307.38 295.49 312.14 295.05 316.85 294.66 C 316.85 297.42 316.86 300.17 316.88 302.92 C 310.44 302.20 304.16 304.52 298.66 307.67 C 273.74 322.01 248.70 336.14 223.75 350.45 C 223.84 347.31 223.95 344.17 224.08 341.03 C 245.84 328.60 267.51 315.97 289.24 303.47 C 293.64 301.02 298.00 298.37 302.84 296.88 Z" />
<path fill="#ffffff" d=" M 316.85 294.66 C 325.43 294.38 333.69 297.80 340.95 302.10 C 357.04 311.37 373.16 320.57 389.28 329.78 C 412.74 343.33 436.34 356.65 459.79 370.21 C 471.64 377.13 479.36 389.91 480.92 403.44 C 481.07 450.60 480.82 497.77 480.90 544.94 C 481.65 560.82 472.79 576.29 459.16 584.28 C 457.82 582.00 456.48 579.73 455.12 577.48 C 464.62 572.17 471.95 562.19 471.87 551.01 C 471.92 530.66 471.89 510.31 471.89 489.96 C 472.18 488.06 470.92 486.64 469.56 485.54 C 462.57 479.58 455.76 473.39 448.80 467.38 C 424.27 445.67 399.58 424.13 375.13 402.33 C 372.06 404.64 368.24 405.35 364.68 403.76 C 351.80 422.47 339.05 441.25 326.30 460.04 C 320.07 469.23 313.70 478.32 307.60 487.59 C 309.33 491.34 310.23 496.69 306.66 499.69 C 302.92 503.36 295.96 502.11 293.67 497.40 C 291.53 493.81 295.44 489.01 291.97 486.03 C 280.52 472.63 269.28 459.04 257.90 445.59 C 254.26 447.33 250.14 447.34 246.62 445.30 C 237.96 453.06 229.67 461.22 221.04 469.01 C 200.56 488.35 179.89 507.49 159.32 526.74 L 159.36 525.93 C 188.36 498.97 217.21 471.84 246.20 444.87 C 244.94 442.46 243.54 439.83 244.24 437.02 C 244.77 433.47 247.98 431.33 251.05 430.09 C 255.34 429.93 259.80 432.70 260.61 437.09 C 261.38 440.04 259.71 442.74 258.30 445.18 C 270.25 459.51 282.29 473.76 294.29 488.04 C 297.85 484.65 303.14 484.36 307.14 487.20 C 326.15 459.28 345.16 431.36 364.19 403.46 C 360.79 400.45 359.68 395.07 362.23 391.20 C 365.28 386.79 372.79 386.82 375.80 391.28 C 378.02 394.46 377.04 398.67 375.58 401.98 C 384.22 409.88 393.11 417.50 401.89 425.25 C 425.16 445.88 448.55 466.39 471.91 486.92 C 471.83 459.61 471.93 432.29 471.87 404.97 C 471.91 397.17 468.30 389.65 462.85 384.19 C 458.62 380.17 453.30 377.61 448.30 374.70 C 441.22 370.58 434.09 366.56 427.01 362.44 C 408.24 351.75 389.57 340.88 370.81 330.17 C 356.39 322.06 342.29 313.38 327.66 305.66 C 324.24 304.17 320.57 303.35 316.88 302.92 C 316.86 300.17 316.85 297.42 316.85 294.66 Z" />
<path fill="#766e6a" d=" M 298.66 307.67 C 304.16 304.52 310.44 302.20 316.88 302.92 C 320.57 303.35 324.24 304.17 327.66 305.66 C 327.26 309.44 326.95 313.22 326.70 317.01 C 321.47 316.74 316.14 315.31 310.99 316.97 C 310.46 322.50 313.57 327.53 313.04 333.06 C 310.07 333.09 307.13 332.60 304.42 331.37 C 304.17 333.77 303.91 336.17 303.66 338.58 C 301.94 338.86 300.23 339.15 298.52 339.44 C 298.13 343.37 296.64 347.07 296.13 350.96 C 297.00 354.21 298.27 357.42 298.00 360.86 C 295.43 361.40 292.87 361.96 290.32 362.52 C 290.11 364.92 289.90 367.32 289.69 369.72 C 287.18 369.89 284.67 370.06 282.17 370.23 C 281.79 377.86 282.31 385.51 281.81 393.15 C 276.86 392.65 272.19 390.26 267.13 391.03 C 266.94 396.68 267.08 402.34 266.88 408.00 C 264.36 407.79 261.83 407.60 259.31 407.40 C 259.11 409.83 258.91 412.26 258.71 414.69 C 256.19 414.88 253.66 415.08 251.14 415.28 C 250.87 420.21 250.86 425.15 251.05 430.09 C 247.98 431.33 244.77 433.47 244.24 437.02 C 243.54 439.83 244.94 442.46 246.20 444.87 C 217.21 471.84 188.36 498.97 159.36 525.93 C 158.85 517.80 159.23 509.66 158.86 501.53 C 159.37 473.36 158.81 445.16 159.00 416.98 C 159.20 410.84 158.40 404.64 159.47 398.56 C 161.49 390.49 166.64 383.01 174.01 378.97 C 190.52 369.35 207.29 360.16 223.75 350.45 C 248.70 336.14 273.74 322.01 298.66 307.67 Z" />
<path fill="#79726f" d=" M 327.66 305.66 C 342.29 313.38 356.39 322.06 370.81 330.17 C 389.57 340.88 408.24 351.75 427.01 362.44 C 426.48 364.86 425.96 367.28 425.44 369.70 C 423.02 369.88 420.59 370.06 418.17 370.24 C 417.65 377.89 418.28 385.57 417.81 393.22 C 415.26 392.93 412.75 392.35 410.38 391.37 C 410.13 393.78 409.87 396.20 409.61 398.62 C 407.52 398.85 405.45 399.11 403.38 399.36 C 402.58 404.92 401.66 410.58 402.64 416.19 C 403.22 419.23 402.82 422.31 401.89 425.25 C 393.11 417.50 384.22 409.88 375.58 401.98 C 377.04 398.67 378.02 394.46 375.80 391.28 C 372.79 386.82 365.28 386.79 362.23 391.20 C 359.68 395.07 360.79 400.45 364.19 403.46 C 345.16 431.36 326.15 459.28 307.14 487.20 C 303.14 484.36 297.85 484.65 294.29 488.04 C 282.29 473.76 270.25 459.51 258.30 445.18 C 259.71 442.74 261.38 440.04 260.61 437.09 C 259.80 432.70 255.34 429.93 251.05 430.09 C 250.86 425.15 250.87 420.21 251.14 415.28 C 253.66 415.08 256.19 414.88 258.71 414.69 C 258.91 412.26 259.11 409.83 259.31 407.40 C 261.83 407.60 264.36 407.79 266.88 408.00 C 267.08 402.34 266.94 396.68 267.13 391.03 C 272.19 390.26 276.86 392.65 281.81 393.15 C 282.31 385.51 281.79 377.86 282.17 370.23 C 284.67 370.06 287.18 369.89 289.69 369.72 C 289.90 367.32 290.11 364.92 290.32 362.52 C 292.87 361.96 295.43 361.40 298.00 360.86 C 298.27 357.42 297.00 354.21 296.13 350.96 C 296.64 347.07 298.13 343.37 298.52 339.44 C 300.23 339.15 301.94 338.86 303.66 338.58 C 303.91 336.17 304.17 333.77 304.42 331.37 C 307.13 332.60 310.07 333.09 313.04 333.06 C 313.57 327.53 310.46 322.50 310.99 316.97 C 316.14 315.31 321.47 316.74 326.70 317.01 C 326.95 313.22 327.26 309.44 327.66 305.66 Z" />
<path fill="#89837d" d=" M 181.46 365.52 C 195.76 357.53 209.74 348.96 224.08 341.03 C 223.95 344.17 223.84 347.31 223.75 350.45 C 207.29 360.16 190.52 369.35 174.01 378.97 C 166.64 383.01 161.49 390.49 159.47 398.56 C 158.40 404.64 159.20 410.84 159.00 416.98 C 158.81 445.16 159.37 473.36 158.86 501.53 C 156.72 510.72 158.40 520.20 157.74 529.53 C 155.90 529.82 154.06 530.10 152.22 530.40 C 151.95 537.56 152.13 544.72 151.93 551.88 L 151.01 551.91 C 150.88 504.60 151.21 457.29 151.22 409.98 C 150.94 399.51 154.43 389.12 160.82 380.85 C 166.19 373.96 173.99 369.72 181.46 365.52 Z" />
<path fill="#7d7674" d=" M 427.01 362.44 C 434.09 366.56 441.22 370.58 448.30 374.70 C 453.30 377.61 458.62 380.17 462.85 384.19 C 468.30 389.65 471.91 397.17 471.87 404.97 C 471.93 432.29 471.83 459.61 471.91 486.92 C 448.55 466.39 425.16 445.88 401.89 425.25 C 402.82 422.31 403.22 419.23 402.64 416.19 C 401.66 410.58 402.58 404.92 403.38 399.36 C 405.45 399.11 407.52 398.85 409.61 398.62 C 409.87 396.20 410.13 393.78 410.38 391.37 C 412.75 392.35 415.26 392.93 417.81 393.22 C 418.28 385.57 417.65 377.89 418.17 370.24 C 420.59 370.06 423.02 369.88 425.44 369.70 C 425.96 367.28 426.48 364.86 427.01 362.44 Z" />
<path fill="#7b7673" d=" M 364.68 403.76 C 368.24 405.35 372.06 404.64 375.13 402.33 C 399.58 424.13 424.27 445.67 448.80 467.38 C 443.63 468.01 438.41 468.11 433.20 468.15 C 432.52 478.05 433.38 487.97 432.84 497.88 C 427.95 497.94 423.06 498.02 418.18 498.12 C 417.60 508.35 418.38 518.61 417.82 528.84 C 412.92 528.92 408.02 529.01 403.12 529.10 C 402.70 544.00 403.34 558.91 402.80 573.80 C 398.25 573.90 393.70 574.04 389.15 574.12 C 388.54 584.02 389.41 593.94 388.85 603.84 C 383.60 603.96 378.36 604.00 373.12 604.16 C 372.86 611.10 373.04 618.04 372.99 624.98 C 369.72 626.89 366.48 628.85 363.17 630.69 C 354.37 635.64 345.62 640.67 336.97 645.86 C 332.60 648.35 328.25 651.11 323.30 652.29 C 318.66 653.30 313.88 652.83 309.18 652.68 C 302.37 650.93 296.51 646.94 290.44 643.58 C 281.66 638.42 272.76 633.46 263.96 628.34 C 264.68 628.14 266.13 627.73 266.86 627.53 C 266.87 625.13 266.90 622.74 266.93 620.35 C 264.30 620.13 261.68 619.92 259.05 619.71 C 258.97 616.90 258.97 614.09 259.05 611.28 C 261.59 611.09 264.14 610.88 266.69 610.69 C 266.90 608.57 267.12 606.45 267.33 604.34 C 269.43 604.09 271.52 603.82 273.62 603.58 C 273.85 601.47 274.11 599.37 274.34 597.28 C 276.87 597.09 279.40 596.90 281.93 596.72 C 281.92 594.24 281.91 591.76 281.91 589.28 C 279.29 589.08 276.66 588.89 274.04 588.70 C 274.03 586.24 274.03 583.79 274.05 581.35 C 276.55 581.12 279.06 580.88 281.57 580.66 C 281.82 578.56 282.09 576.47 282.36 574.39 C 284.17 574.09 285.98 573.79 287.80 573.50 C 287.89 571.28 287.99 569.06 288.08 566.85 C 291.24 567.90 294.57 568.18 297.88 567.93 C 297.94 565.04 297.96 562.16 297.95 559.28 C 294.66 559.11 291.37 558.93 288.08 558.75 C 287.97 555.91 287.95 553.07 288.02 550.24 C 291.27 550.06 294.53 549.86 297.78 549.68 C 298.25 542.98 297.68 536.27 298.22 529.59 C 299.69 529.18 301.17 528.78 302.65 528.38 C 302.86 525.67 303.07 522.96 303.28 520.26 C 306.46 520.08 309.64 519.92 312.83 519.76 C 313.24 512.63 312.69 505.50 313.18 498.38 C 315.00 498.11 316.83 497.86 318.66 497.60 C 318.87 495.16 319.10 492.72 319.32 490.28 C 321.75 490.07 324.17 489.86 326.60 489.67 C 327.89 484.12 328.24 478.43 327.43 472.79 C 326.72 468.53 329.33 463.75 326.30 460.04 C 339.05 441.25 351.80 422.47 364.68 403.76 Z" />
<path fill="#78726e" d=" M 221.04 469.01 C 229.67 461.22 237.96 453.06 246.62 445.30 C 250.14 447.34 254.26 447.33 257.90 445.59 C 269.28 459.04 280.52 472.63 291.97 486.03 C 295.44 489.01 291.53 493.81 293.67 497.40 C 295.96 502.11 302.92 503.36 306.66 499.69 C 310.23 496.69 309.33 491.34 307.60 487.59 C 313.70 478.32 320.07 469.23 326.30 460.04 C 329.33 463.75 326.72 468.53 327.43 472.79 C 328.24 478.43 327.89 484.12 326.60 489.67 C 324.17 489.86 321.75 490.07 319.32 490.28 C 319.10 492.72 318.87 495.16 318.66 497.60 C 316.83 497.86 315.00 498.11 313.18 498.38 C 312.69 505.50 313.24 512.63 312.83 519.76 C 309.64 519.92 306.46 520.08 303.28 520.26 C 303.07 522.96 302.86 525.67 302.65 528.38 C 301.17 528.78 299.69 529.18 298.22 529.59 C 297.68 536.27 298.25 542.98 297.78 549.68 C 294.53 549.86 291.27 550.06 288.02 550.24 C 287.95 553.07 287.97 555.91 288.08 558.75 C 291.37 558.93 294.66 559.11 297.95 559.28 C 297.96 562.16 297.94 565.04 297.88 567.93 C 294.57 568.18 291.24 567.90 288.08 566.85 C 287.99 569.06 287.89 571.28 287.80 573.50 C 285.98 573.79 284.17 574.09 282.36 574.39 C 282.09 576.47 281.82 578.56 281.57 580.66 C 279.06 580.88 276.55 581.12 274.05 581.35 C 274.03 583.79 274.03 586.24 274.04 588.70 C 276.66 588.89 279.29 589.08 281.91 589.28 C 281.91 591.76 281.92 594.24 281.93 596.72 C 279.40 596.90 276.87 597.09 274.34 597.28 C 274.11 599.37 273.85 601.47 273.62 603.58 C 271.52 603.82 269.43 604.09 267.33 604.34 C 267.12 606.45 266.90 608.57 266.69 610.69 C 264.14 610.88 261.59 611.09 259.05 611.28 C 258.97 614.09 258.97 616.90 259.05 619.71 C 261.68 619.92 264.30 620.13 266.93 620.35 C 266.90 622.74 266.87 625.13 266.86 627.53 C 266.13 627.73 264.68 628.14 263.96 628.34 C 234.47 611.38 204.93 594.52 175.45 577.55 C 176.47 571.10 175.79 564.56 176.14 558.06 C 181.05 557.96 185.94 558.52 190.82 559.02 C 191.33 549.07 190.70 539.11 191.16 529.16 C 196.40 528.99 201.64 528.97 206.87 528.88 C 207.38 518.65 206.68 508.41 207.16 498.18 C 212.10 498.03 217.05 497.92 222.00 497.86 C 222.30 494.11 221.46 490.45 219.96 487.04 C 222.52 481.35 222.71 474.98 221.04 469.01 Z" />
<path fill="#7e7976" d=" M 433.20 468.15 C 438.41 468.11 443.63 468.01 448.80 467.38 C 455.76 473.39 462.57 479.58 469.56 485.54 C 470.92 486.64 472.18 488.06 471.89 489.96 C 471.89 510.31 471.92 530.66 471.87 551.01 C 471.95 562.19 464.62 572.17 455.12 577.48 C 437.17 587.68 419.43 598.24 401.54 608.53 C 391.92 613.83 382.56 619.58 372.99 624.98 C 373.04 618.04 372.86 611.10 373.12 604.16 C 378.36 604.00 383.60 603.96 388.85 603.84 C 389.41 593.94 388.54 584.02 389.15 574.12 C 393.70 574.04 398.25 573.90 402.80 573.80 C 403.34 558.91 402.70 544.00 403.12 529.10 C 408.02 529.01 412.92 528.92 417.82 528.84 C 418.38 518.61 417.60 508.35 418.18 498.12 C 423.06 498.02 427.95 497.94 432.84 497.88 C 433.38 487.97 432.52 478.05 433.20 468.15 Z" />
<path fill="#776f6c" d=" M 159.32 526.74 C 179.89 507.49 200.56 488.35 221.04 469.01 C 222.71 474.98 222.52 481.35 219.96 487.04 C 221.46 490.45 222.30 494.11 222.00 497.86 C 217.05 497.92 212.10 498.03 207.16 498.18 C 206.68 508.41 207.38 518.65 206.87 528.88 C 201.64 528.97 196.40 528.99 191.16 529.16 C 190.70 539.11 191.33 549.07 190.82 559.02 C 185.94 558.52 181.05 557.96 176.14 558.06 C 175.79 564.56 176.47 571.10 175.45 577.55 C 166.18 572.49 159.23 562.73 159.01 551.98 C 159.02 543.57 158.76 535.14 159.32 526.74 Z" />
<path fill="#928982" d=" M 157.74 529.53 C 158.40 520.20 156.72 510.72 158.86 501.53 C 159.23 509.66 158.85 517.80 159.36 525.93 L 159.32 526.74 C 158.76 535.14 159.02 543.57 159.01 551.98 C 159.23 562.73 166.18 572.49 175.45 577.55 C 204.93 594.52 234.47 611.38 263.96 628.34 C 272.76 633.46 281.66 638.42 290.44 643.58 C 296.51 646.94 302.37 650.93 309.18 652.68 C 308.91 652.99 308.38 653.61 308.11 653.92 C 313.30 654.45 318.51 654.04 323.71 653.71 C 325.29 653.51 326.54 654.60 327.87 655.27 C 327.19 655.63 325.83 656.36 325.15 656.72 C 326.19 656.89 327.24 657.05 328.30 657.22 C 316.93 661.12 304.20 659.04 293.90 653.15 C 274.10 641.96 254.49 630.41 234.65 619.28 C 217.69 609.59 200.83 599.74 183.82 590.12 C 176.22 585.61 167.92 581.78 162.06 574.94 C 156.54 568.50 152.42 560.45 151.93 551.88 C 152.13 544.72 151.95 537.56 152.22 530.40 C 154.06 530.10 155.90 529.82 157.74 529.53 Z" />
<path fill="#858280" d=" M 630.19 529.09 C 633.45 528.99 636.72 528.93 640.00 528.93 L 640.00 1136.00 L 416.76 1136.00 C 421.45 1132.59 427.48 1134.34 432.84 1133.80 C 433.38 1108.58 432.54 1083.34 433.19 1058.13 C 438.39 1058.00 443.59 1058.00 448.79 1057.92 C 449.32 1037.31 448.59 1016.69 449.16 996.09 C 453.71 996.02 458.26 995.90 462.81 995.82 C 463.32 981.26 462.51 966.68 463.16 952.13 C 468.38 951.91 473.61 951.90 478.84 951.84 C 479.21 936.93 478.61 922.02 479.11 907.11 C 483.67 907.01 488.23 906.89 492.80 906.84 C 493.31 891.59 492.71 876.32 493.15 861.08 C 498.36 861.01 503.58 861.02 508.79 860.84 C 509.43 850.94 508.53 841.02 509.15 831.12 C 514.04 831.01 518.93 830.90 523.83 830.79 C 524.28 815.56 523.65 800.31 524.20 785.08 C 529.07 785.01 533.95 784.92 538.83 784.84 C 539.39 774.91 538.49 764.97 539.20 755.05 C 544.07 754.99 548.95 754.93 553.83 754.86 C 554.36 739.96 553.50 725.05 554.19 710.16 C 559.06 710.03 563.93 709.92 568.80 709.83 C 569.43 699.92 568.57 690.00 569.17 680.09 C 574.06 680.02 578.95 679.95 583.84 679.86 C 584.25 664.62 583.63 649.37 584.15 634.13 C 589.05 633.97 593.96 633.87 598.87 633.81 C 599.26 623.91 598.71 614.00 599.13 604.11 C 604.01 604.00 608.89 603.89 613.78 603.81 C 614.41 588.92 613.53 574.02 614.18 559.14 C 619.39 558.96 624.61 558.94 629.83 558.87 C 630.32 548.95 629.49 539.01 630.19 529.09 Z" />
<path fill="#77726e" d=" M 146.35 552.20 C 147.90 552.09 149.46 551.97 151.01 551.91 L 151.93 551.88 C 152.42 560.45 156.54 568.50 162.06 574.94 C 167.92 581.78 176.22 585.61 183.82 590.12 C 200.83 599.74 217.69 609.59 234.65 619.28 C 230.54 619.94 226.38 620.19 222.22 620.19 C 221.67 630.08 222.42 639.98 221.88 649.88 C 216.99 649.99 212.11 650.07 207.22 650.15 C 206.70 665.05 207.34 679.98 206.88 694.89 C 201.65 695.05 196.42 695.07 191.19 695.15 C 190.83 704.25 190.81 713.37 191.45 722.45 C 189.31 728.73 186.78 734.87 184.87 741.23 C 181.51 730.71 177.42 720.43 173.72 710.02 C 172.48 710.00 171.24 709.99 170.01 709.99 C 174.37 721.76 178.71 733.53 183.10 745.29 C 184.30 745.25 185.51 745.22 186.72 745.20 C 187.89 741.92 189.15 738.68 190.36 735.42 C 191.49 746.86 191.06 758.39 190.84 769.87 C 185.94 769.93 181.05 770.04 176.16 770.18 C 175.67 780.39 176.38 790.62 175.85 800.83 C 170.55 800.97 165.24 801.03 159.94 801.18 C 159.78 804.94 161.22 808.44 162.04 812.04 C 161.57 815.06 160.07 817.87 160.02 820.99 C 159.91 824.67 160.00 828.36 159.82 832.05 C 155.25 831.83 150.69 831.40 146.13 830.97 C 145.72 845.95 146.27 860.94 145.86 875.92 C 140.96 875.98 136.05 876.03 131.14 876.10 C 130.75 886.36 131.25 896.63 130.86 906.89 C 125.90 906.99 120.95 907.06 116.00 907.14 C 116.87 913.08 116.81 919.07 116.19 925.03 C 116.65 931.27 116.90 937.54 115.61 943.72 C 112.85 943.89 110.09 944.07 107.33 944.26 C 107.10 946.70 106.88 949.16 106.66 951.63 C 104.42 951.87 102.18 952.12 99.95 952.38 C 99.80 956.06 101.30 959.46 102.05 963.00 C 101.46 966.37 99.90 969.54 99.91 973.03 C 99.89 977.91 100.10 982.81 99.80 987.70 C 97.31 987.90 94.82 988.11 92.33 988.32 C 92.14 990.75 91.95 993.18 91.76 995.62 C 89.51 995.86 87.26 996.11 85.01 996.36 C 84.80 1002.13 86.40 1007.86 85.59 1013.63 C 84.58 1020.60 85.27 1027.65 84.84 1034.66 C 82.34 1034.88 79.85 1035.10 77.35 1035.34 C 77.14 1037.74 76.92 1040.14 76.71 1042.56 C 74.86 1042.85 73.01 1043.15 71.16 1043.47 C 70.70 1055.21 71.38 1066.97 70.82 1078.71 C 67.66 1078.90 64.49 1079.09 61.33 1079.29 C 61.11 1081.70 60.88 1084.11 60.66 1086.54 C 58.83 1086.84 57.00 1087.16 55.17 1087.49 C 54.61 1100.21 55.42 1112.96 54.85 1125.69 C 52.01 1125.88 49.18 1126.08 46.35 1126.29 C 46.13 1128.60 45.91 1130.91 45.67 1133.23 C 43.29 1133.96 40.96 1134.85 38.74 1136.00 L 0.00 1136.00 L 0.00 845.67 C 0.45 842.88 1.01 840.11 1.49 837.33 C 3.80 837.10 6.12 836.88 8.43 836.68 C 9.53 833.55 11.17 830.42 11.04 827.02 C 10.20 823.49 8.96 820.02 8.96 816.35 C 11.23 816.13 13.50 815.92 15.78 815.71 C 15.94 812.59 16.10 809.47 16.25 806.36 C 19.06 806.13 21.87 805.90 24.68 805.69 C 26.87 799.05 25.14 792.16 25.04 785.38 C 27.24 785.12 29.45 784.85 31.65 784.60 C 31.89 782.18 32.12 779.77 32.35 777.36 C 34.70 777.14 37.04 776.92 39.39 776.72 C 40.40 772.47 43.20 768.04 41.23 763.66 C 40.23 761.04 39.91 758.24 40.06 755.46 C 41.93 755.18 43.80 754.90 45.67 754.63 C 45.98 750.21 46.50 745.80 47.30 741.45 C 49.82 741.18 52.33 740.90 54.84 740.64 C 55.03 735.58 55.08 730.51 55.18 725.45 C 57.00 725.13 58.81 724.83 60.63 724.53 C 61.02 720.04 61.83 715.59 63.48 711.38 C 67.88 710.97 72.25 710.38 76.61 709.72 C 77.56 704.74 78.27 699.66 77.47 694.61 C 76.72 689.77 77.43 684.90 78.41 680.16 C 82.88 680.11 87.35 679.98 91.82 679.87 C 92.44 669.97 91.58 660.05 92.21 650.15 C 97.01 650.12 101.80 650.02 106.60 649.87 C 107.51 644.77 108.36 639.57 107.60 634.39 C 106.93 629.71 106.80 624.98 107.23 620.28 C 110.48 620.09 113.74 619.90 116.99 619.72 C 116.93 616.90 116.86 614.08 116.75 611.26 C 119.20 611.09 121.64 610.93 124.10 610.77 C 123.34 603.68 122.66 596.49 124.37 589.48 C 126.43 589.17 128.49 588.86 130.55 588.56 C 130.86 586.86 131.18 585.16 131.49 583.47 C 134.01 582.91 136.54 582.40 139.07 581.94 C 139.01 579.40 138.94 576.86 138.87 574.33 C 136.27 574.09 133.68 573.84 131.08 573.61 C 131.07 571.26 131.07 568.92 131.07 566.58 C 133.48 566.00 136.20 566.04 138.31 564.63 C 138.90 562.93 139.22 561.15 139.61 559.41 C 141.64 559.15 143.68 558.88 145.71 558.64 C 145.92 556.49 146.14 554.34 146.35 552.20 Z" />
<path fill="#9f9b97" d=" M 401.54 608.53 C 419.43 598.24 437.17 587.68 455.12 577.48 C 456.48 579.73 457.82 582.00 459.16 584.28 C 445.00 592.36 430.70 600.23 416.55 608.33 C 412.97 610.39 409.39 612.47 405.81 614.54 C 405.85 612.70 405.89 610.85 405.94 609.02 C 404.47 608.87 403.00 608.69 401.54 608.53 Z" />
<path fill="#9a9490" d=" M 372.99 624.98 C 382.56 619.58 391.92 613.83 401.54 608.53 C 403.00 608.69 404.47 608.87 405.94 609.02 C 405.89 610.85 405.85 612.70 405.81 614.54 C 392.45 622.30 378.89 629.70 365.51 637.41 C 365.27 635.00 364.56 632.68 363.17 630.69 C 366.48 628.85 369.72 626.89 372.99 624.98 Z" />
<path fill="#7b7673" d=" M 405.81 614.54 C 409.39 612.47 412.97 610.39 416.55 608.33 C 418.90 611.71 417.97 615.95 417.79 619.78 C 412.91 619.86 408.02 619.98 403.14 620.13 C 402.50 630.02 403.43 639.93 402.78 649.83 C 398.24 649.89 393.69 650.03 389.15 650.15 C 388.58 665.04 389.30 679.95 388.79 694.85 C 383.60 694.95 378.42 694.95 373.23 695.13 C 372.37 703.87 373.80 712.69 372.35 721.39 C 368.02 718.98 362.32 719.23 358.55 722.56 C 352.84 727.62 352.85 737.43 358.31 742.68 C 358.17 746.75 357.96 750.81 357.74 754.87 C 352.54 755.00 347.34 754.98 342.15 755.10 C 341.78 770.34 342.29 785.60 341.79 800.85 C 336.91 800.86 332.03 800.96 327.15 801.17 C 326.68 811.06 327.22 820.96 326.80 830.86 C 322.25 830.87 317.71 831.00 313.17 831.17 C 312.59 846.06 313.27 860.97 312.80 875.86 C 307.93 875.92 303.06 875.98 298.19 876.07 C 297.58 891.02 298.28 905.98 297.83 920.93 C 292.59 921.00 287.35 920.96 282.11 921.12 C 281.65 936.38 282.26 951.65 281.81 966.90 C 276.93 966.93 272.06 967.00 267.18 967.14 C 266.67 982.04 267.23 996.95 266.84 1011.85 C 261.62 1011.93 256.40 1011.94 251.19 1012.12 C 250.44 1032.01 251.48 1051.93 250.74 1071.81 C 246.21 1071.87 241.69 1072.02 237.16 1072.18 C 236.75 1079.43 237.00 1086.70 236.95 1093.96 C 237.15 1107.97 236.71 1121.99 237.07 1136.00 L 38.74 1136.00 C 40.96 1134.85 43.29 1133.96 45.67 1133.23 C 45.91 1130.91 46.13 1128.60 46.35 1126.29 C 49.18 1126.08 52.01 1125.88 54.85 1125.69 C 55.42 1112.96 54.61 1100.21 55.17 1087.49 C 57.00 1087.16 58.83 1086.84 60.66 1086.54 C 60.88 1084.11 61.11 1081.70 61.33 1079.29 C 64.49 1079.09 67.66 1078.90 70.82 1078.71 C 71.38 1066.97 70.70 1055.21 71.16 1043.47 C 73.01 1043.15 74.86 1042.85 76.71 1042.56 C 76.92 1040.14 77.14 1037.74 77.35 1035.34 C 79.85 1035.10 82.34 1034.88 84.84 1034.66 C 85.27 1027.65 84.58 1020.60 85.59 1013.63 C 86.40 1007.86 84.80 1002.13 85.01 996.36 C 87.26 996.11 89.51 995.86 91.76 995.62 C 91.95 993.18 92.14 990.75 92.33 988.32 C 94.82 988.11 97.31 987.90 99.80 987.70 C 100.10 982.81 99.89 977.91 99.91 973.03 C 99.90 969.54 101.46 966.37 102.05 963.00 C 101.30 959.46 99.80 956.06 99.95 952.38 C 102.18 952.12 104.42 951.87 106.66 951.63 C 106.88 949.16 107.10 946.70 107.33 944.26 C 110.09 944.07 112.85 943.89 115.61 943.72 C 116.90 937.54 116.65 931.27 116.19 925.03 C 116.81 919.07 116.87 913.08 116.00 907.14 C 120.95 907.06 125.90 906.99 130.86 906.89 C 131.25 896.63 130.75 886.36 131.14 876.10 C 136.05 876.03 140.96 875.98 145.86 875.92 C 146.27 860.94 145.72 845.95 146.13 830.97 C 150.69 831.40 155.25 831.83 159.82 832.05 C 160.00 828.36 159.91 824.67 160.02 820.99 C 160.07 817.87 161.57 815.06 162.04 812.04 C 161.22 808.44 159.78 804.94 159.94 801.18 C 165.24 801.03 170.55 800.97 175.85 800.83 C 176.38 790.62 175.67 780.39 176.16 770.18 C 181.05 770.04 185.94 769.93 190.84 769.87 C 191.06 758.39 191.49 746.86 190.36 735.42 C 193.37 726.91 196.63 718.49 199.73 710.01 C 198.51 710.00 197.29 709.99 196.08 710.00 C 194.54 714.15 192.98 718.30 191.45 722.45 C 190.81 713.37 190.83 704.25 191.19 695.15 C 196.42 695.07 201.65 695.05 206.88 694.89 C 207.34 679.98 206.70 665.05 207.22 650.15 C 212.11 650.07 216.99 649.99 221.88 649.88 C 222.42 639.98 221.67 630.08 222.22 620.19 C 226.38 620.19 230.54 619.94 234.65 619.28 C 254.49 630.41 274.10 641.96 293.90 653.15 C 304.20 659.04 316.93 661.12 328.30 657.22 C 335.91 654.90 342.49 650.31 349.41 646.54 C 354.83 643.59 360.18 640.52 365.51 637.41 C 378.89 629.70 392.45 622.30 405.81 614.54 Z" />
<path fill="#948d89" d=" M 336.97 645.86 C 345.62 640.67 354.37 635.64 363.17 630.69 C 364.56 632.68 365.27 635.00 365.51 637.41 C 360.18 640.52 354.83 643.59 349.41 646.54 C 342.49 650.31 335.91 654.90 328.30 657.22 C 327.24 657.05 326.19 656.89 325.15 656.72 C 325.83 656.36 327.19 655.63 327.87 655.27 C 326.54 654.60 325.29 653.51 323.71 653.71 C 318.51 654.04 313.30 654.45 308.11 653.92 C 308.38 653.61 308.91 652.99 309.18 652.68 C 313.88 652.83 318.66 653.30 323.30 652.29 C 328.25 651.11 332.60 648.35 336.97 645.86 Z" />
<path fill="#ffffff" d=" M 170.01 709.99 C 171.24 709.99 172.48 710.00 173.72 710.02 C 177.42 720.43 181.51 730.71 184.87 741.23 C 186.78 734.87 189.31 728.73 191.45 722.45 C 192.98 718.30 194.54 714.15 196.08 710.00 C 197.29 709.99 198.51 710.00 199.73 710.01 C 196.63 718.49 193.37 726.91 190.36 735.42 C 189.15 738.68 187.89 741.92 186.72 745.20 C 185.51 745.22 184.30 745.25 183.10 745.29 C 178.71 733.53 174.37 721.76 170.01 709.99 Z" />
<path fill="#ffffff" d=" M 205.51 710.00 C 206.39 710.00 208.13 710.00 209.00 710.00 C 209.00 721.75 209.00 733.49 209.00 745.24 C 208.13 745.24 206.39 745.24 205.52 745.24 C 205.50 733.49 205.51 721.75 205.51 710.00 Z" />
<path fill="#ffffff" d=" M 214.24 710.02 C 223.83 709.99 233.41 710.00 243.00 710.00 C 243.00 710.75 243.00 712.25 243.00 713.00 C 238.83 713.00 234.66 713.00 230.50 713.00 C 230.46 723.76 230.55 734.51 230.46 745.27 C 229.59 745.26 227.87 745.24 227.00 745.23 C 227.00 734.49 227.00 723.74 227.00 713.00 C 222.75 713.00 218.49 713.00 214.24 712.98 C 214.24 712.24 214.24 710.76 214.24 710.02 Z" />
<path fill="#ffffff" d=" M 345.08 709.91 C 345.60 710.12 346.65 710.53 347.18 710.74 C 347.40 722.24 347.20 733.76 347.26 745.27 C 346.68 745.27 345.52 745.26 344.94 745.26 C 344.98 743.79 345.02 742.33 345.08 740.88 C 341.79 745.96 334.27 747.46 329.55 743.52 C 324.79 739.34 324.28 731.91 326.51 726.30 C 328.49 721.15 334.89 718.29 340.02 720.43 C 342.27 721.17 343.70 723.19 345.15 724.94 C 344.87 719.93 344.94 714.92 345.08 709.91 Z" />
<path fill="#ffffff" d=" M 429.26 710.26 C 429.88 710.25 431.11 710.24 431.73 710.24 C 431.73 711.48 431.74 712.73 431.76 713.99 C 431.13 713.99 429.88 714.00 429.25 714.00 C 429.25 712.74 429.25 711.49 429.26 710.26 Z" />
<path fill="#ffffff" d=" M 247.58 722.29 C 251.06 720.41 255.10 719.06 259.08 720.07 C 262.81 720.69 265.16 724.49 265.17 728.09 C 265.40 733.80 265.17 739.53 265.24 745.24 C 264.67 745.25 263.53 745.25 262.96 745.25 C 263.00 743.53 263.07 741.82 263.15 740.12 C 260.71 744.72 254.91 747.31 250.06 744.83 C 245.29 743.21 244.26 736.19 248.17 733.13 C 252.35 729.77 258.12 730.16 263.17 729.94 C 262.92 727.35 262.79 724.19 260.23 722.74 C 256.64 720.66 252.24 722.03 248.90 723.95 C 248.57 723.54 247.91 722.71 247.58 722.29 Z" />
<path fill="#ffffff" d=" M 279.11 721.07 C 283.95 718.61 289.86 719.75 294.00 723.06 C 293.70 723.50 293.10 724.40 292.80 724.84 C 289.26 721.89 284.18 720.62 279.94 722.88 C 272.75 726.36 272.24 737.91 279.02 742.08 C 283.48 745.06 289.30 743.73 293.29 740.60 C 295.49 740.82 293.70 743.07 292.57 743.48 C 286.79 747.46 277.74 746.13 274.02 739.98 C 269.97 733.78 272.17 724.15 279.11 721.07 Z" />
<path fill="#ffffff" d=" M 300.93 722.17 C 304.95 720.09 309.84 718.71 314.17 720.69 C 317.20 722.17 318.51 725.68 318.48 728.89 C 318.50 734.25 318.63 739.62 318.42 744.98 C 315.16 746.92 316.51 741.65 316.37 740.05 C 314.06 744.79 308.10 747.30 303.27 744.82 C 298.62 743.21 297.53 736.42 301.22 733.30 C 305.38 729.73 311.30 730.18 316.42 729.91 C 316.18 727.28 315.98 724.11 313.38 722.68 C 309.73 720.68 305.41 722.09 302.04 724.01 C 301.77 723.55 301.21 722.63 300.93 722.17 Z" />
<path fill="#ffffff" d=" M 358.55 722.56 C 362.32 719.23 368.02 718.98 372.35 721.39 C 375.51 724.22 376.42 728.40 376.74 732.46 C 369.88 732.54 363.02 732.42 356.16 732.55 C 356.80 736.28 357.94 740.44 361.60 742.31 C 365.81 745.05 371.06 743.56 374.92 740.94 C 375.21 741.35 375.78 742.15 376.07 742.56 C 370.86 746.43 363.48 746.85 358.31 742.68 C 352.85 737.43 352.84 727.62 358.55 722.56 Z" />
<path fill="#ffffff" d=" M 385.46 727.03 C 387.48 721.90 393.53 718.18 398.94 720.41 C 401.61 721.15 402.48 724.02 403.36 726.32 C 405.55 721.40 411.48 718.26 416.67 720.40 C 419.90 721.40 420.97 725.06 421.14 728.07 C 421.42 733.79 421.17 739.51 421.24 745.24 C 420.68 745.24 419.57 745.25 419.01 745.26 C 418.90 739.45 419.19 733.64 418.89 727.85 C 418.79 725.39 417.58 722.64 414.99 721.98 C 409.35 720.37 404.08 725.77 403.61 731.12 C 403.27 735.76 403.58 740.42 403.51 745.07 C 402.94 745.12 401.81 745.21 401.25 745.26 C 401.17 739.50 401.41 733.73 401.18 727.98 C 401.18 725.37 399.79 722.40 397.00 721.89 C 391.44 720.64 386.48 725.82 385.89 731.04 C 385.51 735.75 385.85 740.49 385.75 745.22 C 385.19 745.23 384.08 745.24 383.53 745.25 C 383.49 736.92 383.51 728.60 383.52 720.28 L 385.79 720.22 C 385.75 722.48 385.67 724.76 385.46 727.03 Z" />
<path fill="#ffffff" d=" M 429.28 720.21 C 429.83 720.23 430.94 720.26 431.50 720.28 C 431.41 728.46 431.65 736.64 431.41 744.82 C 430.88 744.99 429.81 745.34 429.27 745.52 C 429.23 737.08 429.24 728.65 429.28 720.21 Z" />
<path fill="#ffffff" d=" M 445.99 721.02 C 450.62 718.81 456.63 719.46 460.41 723.03 C 460.30 723.50 460.09 724.45 459.98 724.93 C 456.40 722.45 451.83 720.55 447.56 722.51 C 439.84 725.29 438.69 737.17 445.30 741.76 C 449.88 745.15 456.41 743.93 460.38 740.16 C 461.91 742.76 458.75 743.92 456.89 744.74 C 450.93 747.28 443.03 744.97 440.19 738.93 C 436.90 732.74 439.36 723.85 445.99 721.02 Z" />
<path fill="#ffffff" d=" M 469.41 721.29 C 473.39 718.62 478.77 719.64 482.48 722.33 C 481.87 722.76 481.33 723.28 480.86 723.87 C 477.99 721.84 473.96 720.80 470.78 722.76 C 468.48 724.16 468.33 727.88 470.56 729.43 C 473.92 731.87 478.56 732.23 481.44 735.38 C 484.05 738.37 482.52 743.42 478.92 744.83 C 474.40 747.02 469.26 745.04 465.38 742.44 C 466.87 739.94 469.07 742.38 470.92 742.99 C 473.73 744.24 477.60 744.17 479.72 741.67 C 481.11 739.95 480.69 737.30 478.92 736.03 C 475.71 733.69 471.49 733.15 468.45 730.55 C 465.78 728.01 466.39 723.28 469.41 721.29 Z" />
<path fill="#7e7976" d=" M 333.28 722.34 C 337.40 720.45 342.45 722.90 343.97 727.05 C 345.77 731.79 345.65 738.05 341.76 741.75 C 337.86 745.31 330.89 743.96 328.82 739.03 C 326.22 733.53 327.06 724.96 333.28 722.34 Z" />
<path fill="#7f7a77" d=" M 360.03 724.07 C 363.20 721.10 368.83 720.77 371.91 724.04 C 373.60 725.75 373.89 728.24 374.52 730.46 C 368.49 730.52 362.47 730.54 356.44 730.45 C 357.23 728.13 358.04 725.65 360.03 724.07 Z" />
<path fill="#7b7672" d=" M 248.71 735.63 C 252.08 731.37 258.31 732.16 263.15 731.97 C 263.25 736.97 260.75 743.27 255.06 743.74 C 250.72 744.64 246.02 739.75 248.71 735.63 Z" />
<path fill="#7c7775" d=" M 303.96 733.76 C 307.76 731.72 312.23 732.04 316.41 731.98 C 316.22 735.26 315.66 738.78 313.27 741.26 C 310.51 744.54 304.51 744.75 302.03 741.05 C 300.36 738.64 301.34 735.04 303.96 733.76 Z" />
</svg>
